<svg xmlns="http://www.w3.org/2000/svg" viewBox="0 0 387.7 163.38"><g id="Layer_2" data-name="Layer 2"><g id="Layer_1-2" data-name="Layer 1"><path d="M193.42,93.63q-22.17,0-44.33,0c-9.84,0-14.18-4.42-14.19-14.29q0-23,0-46c0-.9,0-1.8.07-2.69.54-7.41,4.62-11.51,12.08-11.76,5.89-.19,11.78-.14,17.67,0,2.59.07,3.8-.93,4.28-3.42.53-2.84,1.34-5.62,2.06-8.42,1.26-4.91,3.67-6.9,8.67-6.94Q193.33,0,207,0c4.75,0,7.15,2,8.41,6.52a72.63,72.63,0,0,1,2.1,8.4c.48,3.16,2.13,4,5.12,3.88,5.28-.19,10.58-.07,15.87,0,8.6.05,13.18,4.55,13.21,13.06q.06,24.36,0,48.74c0,8.25-4.49,12.89-12.72,13-15.18.11-30.35,0-45.52,0Zm0-4.47v0q22.31,0,44.62,0c6.65,0,9-2.35,9.06-9.06q.09-23.93,0-47.83c0-6.57-2.28-8.76-8.91-8.84s-13.18-.08-19.76,0a3.81,3.81,0,0,1-4.26-3.28c-1-4.16-2.21-8.28-3.19-12.45a3.41,3.41,0,0,0-3.8-3q-13.92,0-27.84,0a3.46,3.46,0,0,0-3.83,3c-.88,3.79-1.84,7.56-2.75,11.33s-1.41,4.3-5.52,4.32c-6,0-12,0-18,0-7.5,0-9.91,2.41-9.92,9.84q0,22.86,0,45.74c0,8,2.31,10.33,10.34,10.34Z"/><path d="M321.41,129.91c2.63-1.11,4.95-2.71,7.44-3,4.44-.55,6.35,2.87,4,6.81a19.79,19.79,0,0,1-14.56,9.5c-2.1.32-3.25,1-3.79,3q-1.45,5.47-3.08,10.91c-1.08,3.66-2,4.47-5.4,4.3,2.93-7.46,5.81-14.77,8.69-22.09l-.56-.47a16.49,16.49,0,0,1-3.4,2.48c-1.94.78-4.18,1.82-6,1.47-2.32-.43-2.06-3-2-5.05,0-.25-.23-.51-.45-1-4.44,2.9-8.23,9.78-14.31,2.57-1.76,1.16-3.36,2.62-5.25,3.31-1.39.51-3.56.57-4.61-.22-.87-.65-1.24-3.1-.72-4.25,1.13-2.48,3.07-4.59,4.47-7a10.56,10.56,0,0,0,.68-3.26c-1.38.07-2.87-.16-4.09.31-.89.35-1.35,1.67-2.09,2.48-3.59,4-7,8.17-10.92,11.72a27.63,27.63,0,0,0-5.68,7.5,72,72,0,0,1-6.65,10.57,9.19,9.19,0,0,1-5.63,2.81c-3.44.43-5-2.46-3.36-5.53,2.5-4.68,6.69-7.67,11-10.31,4.84-3,6.08-7.79,7.94-12.38l-1-.88a19.75,19.75,0,0,1-2.18,3,36,36,0,0,1-5.47,4.56,4.45,4.45,0,0,1-6.2-1c-1.14-1.44-2-1-3.48-.86a24.57,24.57,0,0,0-9.56,3.1c-2.52,1.3-5.17-.24-6.23-2.94l-.89-2.34c-.93.82-1.59,1.49-2.34,2a24.73,24.73,0,0,1-4.43,3c-3.51,1.53-5.21.15-5.74-3.89-2.69.43-5.37.84-8,1.3a3,3,0,0,0-1,.55c-6.15,4.09-7.64,3.77-11.26-2.69-.77.67-1.45,1.34-2.22,1.89a23.71,23.71,0,0,1-4.46,2.94c-3.32,1.37-5.7-.42-5.21-4a29.28,29.28,0,0,1,1.87-5.63c.38-1.06.85-2.09,1.6-3.88-7.27,3-8.7,11.14-14.9,14l-.85-.51c.95-2.94,1.91-5.87,3.1-9.53l-3,2-.36-.28c1.44-2.27,2.9-4.54,4.32-6.83,2.29-3.71,4.4-7.55,6.89-11.12a42.92,42.92,0,0,1,6.11-6.88,7,7,0,0,1,4.11-1.41c2.68-.14,4.26,2,2.94,4.34a35.9,35.9,0,0,1-5.79,7.49,82.36,82.36,0,0,1-8.69,7.31c-2.43,1.84-3.26,4.32-3.34,7.48.94-.89,1.87-1.8,2.82-2.67a69.05,69.05,0,0,1,6-5.34c1-.69,2.52-.57,3.81-.82a16.23,16.23,0,0,1-.39,3.85c-.87,2.52-2.18,4.9-3,7.44-.3,1,.3,2.19.49,3.3,1.08-.26,2.49-.19,3.2-.86,2.59-2.43,4.94-5.13,7.42-7.69,2.06-2.13,3.94-4.52,6.32-6.2s4-.56,5.8,1.78c2.32,3,1.89,5.59.06,8.44a8.29,8.29,0,0,0-.55,2.32c4.72.08,5.86-3.89,8.07-6.34,1.28-1.42,3.23-3.08.68-5.64,4.09-.94,5-4.43,6.66-7.24.25-.43.47-1,.85-1.19a14.16,14.16,0,0,1,2.62-.54c0,.89.27,1.93-.09,2.65a51.35,51.35,0,0,1-3.24,5l5.12.44.15.49c-.75.23-1.52.42-2.26.71-1.69.65-4.2.89-4.88,2.12a34.45,34.45,0,0,0-3.92,10.48c-.42,2.34,2,1.84,3.13.82,2.84-2.62,5.47-5.46,8.14-8.26,1.64-1.72,2.92-3.94,4.85-5.17,1.55-1,4.73-1.77,5.61-1,1.66,1.55,2.5,4.24,3.07,6.61.26,1.09-1,2.51-1.43,3.82a7.76,7.76,0,0,0-.14,1.94c.75,0,1.73.3,2.19-.06,1.4-1.09,2.49-2.57,3.89-3.66a137.63,137.63,0,0,1,11.4-8.5c2.13-1.34,4.88-1.64,7.88.83-6.79-.51-11.18,2.63-14.88,7a13.54,13.54,0,0,0-2.38,4.09c-.28.76.25,1.81.42,2.73.83-.15,1.9,0,2.46-.5,3.43-2.87,6.76-5.87,10.1-8.84.44-.4.71-1.13,1.2-1.3a20.84,20.84,0,0,1,3.18-.65c.1,1,.54,2.06.24,2.88-.74,2-1.84,4-2.75,6a3.13,3.13,0,0,0-.15,2.09c4.52-4.42,10.86-7.38,11.19-15,.09-2.15,3-4.52,6-4.74-.3.82-.53,1.51-.8,2.18s-.54,1.23-1,2.3c1.51.2,2.73.3,3.93.52.93.17,1.84.48,2.76.73a17,17,0,0,1-1.11,2.91c-1.58,2.64-3.42,5.13-4.87,7.85-.51,1-.17,2.38-.22,3.59,1.16-.33,2.58-.36,3.42-1.07,2-1.66,3.49-3.85,5.5-5.45a102.41,102.41,0,0,1,11.26-8.2c2.1-1.27,4.85-1.54,7.66.88-7.42-.41-12,3.31-15.81,8.29a7.48,7.48,0,0,0-1.43,2.6,10,10,0,0,0,.11,2.82c.9-.14,2.07,0,2.67-.46,2.92-2.4,5.69-5,8.49-7.52.51-.47.85-1.2,1.43-1.51,1.29-.68,2.68-1.17,4-1.73-.27,1.25-.48,2.52-.83,3.75a40.45,40.45,0,0,0-1.45,4.83,3.66,3.66,0,0,0,.94,2.83c.36.35,1.87-.15,2.61-.65,4.6-3.12,8.05-7.12,9.22-12.73a4.79,4.79,0,0,1,.73-2.24,2.89,2.89,0,0,1,2.24-.72c.41.08.95,1.27.86,1.87A16.52,16.52,0,0,1,321.41,129.91ZM209,132.71c-.08-4.66-1.14-6-3.2-4.54-3.74,2.54-6.43,6-7,10.63-.33,2.81,1.74,4.18,4.17,2.84C206.79,139.54,207.59,135.52,209,132.71Zm32.64,0c-.13-1.46-.15-2.26-.27-3-.31-2-1.54-2.64-3.14-1.48-3.57,2.57-6.25,5.86-6.67,10.42-.1,1,.35,2.63,1.09,3.07s2.36.15,3.28-.38C239.46,139.29,240.2,135.46,241.64,132.72Zm75.64,8.77c5-.3,12.42-6.5,13.29-10.85.45-2.27-.58-3.19-2.83-2.52C323.58,129.34,317.79,136.64,317.28,141.49ZM193.09,110c-6.26,3.54-9.27,9-12.21,15.17C186.33,123.19,193.67,114.24,193.09,110Zm63.37,39.38-.68-.64c-1.94,1.57-4,3-5.78,4.74a28.58,28.58,0,0,0-4.1,5c-.42.65,0,1.83,0,2.77.89-.13,2,0,2.64-.46C252.48,157.85,254.4,153.56,256.46,149.37Z"/><path d="M26.3,130.68c-8.42-1.92-17.12-3.23-19.32,5.43-2.51-3.52-.09-8.68,4.61-9a36.36,36.36,0,0,1,11,.75c4.34,1,7.29.28,9.91-3.49,3.12-4.49,6.75-8.63,10.3-12.81a21.19,21.19,0,0,1,3.68-2.84l.88.77c-.31.94-.56,1.92-.94,2.84-1.94,4.68-4,9.33-5.81,14.06-.44,1.15-.13,2.59-.16,3.9,1.45-.09,2.9-.13,4.34-.3a5.63,5.63,0,0,0,1.54-.67l.36.92c-1.52.44-3,1.28-4.55,1.22-2.65-.1-3.6,1.11-3.79,3.45a11.29,11.29,0,0,0-.21,2.37c.22,1.57.62,3.12,1,4.67,1.53-.59,3.25-.9,4.54-1.82,3.71-2.66,6.72-5.94,7.85-10.57a2.89,2.89,0,0,1,.72-1.61,9.15,9.15,0,0,1,2.24-1c.16.7.6,1.47.42,2.08-.57,1.95-1.36,3.85-2.07,5.76l.63.43c2.08-2,4.12-4.09,6.26-6a17.22,17.22,0,0,1,3.61-2.6,2.66,2.66,0,0,1,2.42.09,2.68,2.68,0,0,1,.36,2.4c-.75,2-1.78,4-2.69,6a3,3,0,0,0-.4,1.12c0,1.68.13,3.36.2,5,1.47-.62,3.39-.85,4.34-1.92,2.93-3.32,5.45-7,8.25-10.46a13.31,13.31,0,0,1,2.75-2.05c0,1.12.35,2.36,0,3.36-1,2.72-2.3,5.29-3.23,8-.29.88.25,2,.41,3.06,1-.2,2.24-.11,3-.67,4.1-3.08,7.68-6.6,9.55-11.59,1.59-4.28,8.08-8.13,12.58-7.46a4.38,4.38,0,0,1,3,2c.36.79-.5,2.16-1.4,3.1-.29-1-.35-2.64-.93-2.85a4.54,4.54,0,0,0-3.4.43,38.58,38.58,0,0,0-6.61,4.44c-1.8,1.57-1.43,3.37.65,4.65.85.52,1.74,1,2.6,1.49,3.23,1.9,3.75,4.37.72,6.55-2.56,1.84-5.8,2.8-8.82,3.9-.64.23-1.68-.65-2.53-1l1.16-2.39c.42,3,1.9,2.93,3.82,1.91a5.34,5.34,0,0,0,2-1.32c1.2-1.71,3.39-3.88,3-5.27-.48-1.75-3.06-3-4.88-4.26-.29-.21-1.49.53-2,1.07-1.78,1.88-3.41,3.9-5.17,5.8a12,12,0,0,1-2.28,1.91c-4.59,3-7.18,1.9-8.07-3.85-1,.9-1.84,1.7-2.75,2.35a21.78,21.78,0,0,1-4.26,2.69c-3.47,1.38-5.87-.48-5.3-4.13A34.52,34.52,0,0,1,61.07,133a10.33,10.33,0,0,0,.8-2.87c-6.32,2.51-8,10.16-14.37,13.37V139c-1.14.81-1.84,1.41-2.62,1.86a23.44,23.44,0,0,1-4.22,2.18c-2.88.92-4.72-.19-5.21-3.14a30,30,0,0,1-.11-4.75c0-1.34,1.37-3.14-1-3.74-2.13-.54-4.23-1.46-6.25.9a134.63,134.63,0,0,1-10.38,10.72,15,15,0,0,1-12.08,4.19c-4-.4-6.21-3-5.57-5.75,1.56,1.1,3.14,3,5,3.33a13.17,13.17,0,0,0,6.67-1C16.34,142.22,24,135,26.3,130.68ZM40.17,118.5l-.71-.41-8.12,10.6.53,1.11c1.6-.31,4.19-.14,4.64-1C38.12,125.54,39,122,40.17,118.5Z"/><path d="M344.1,135.75c2.12-2.31,4.14-4.73,6.39-6.91,1.51-1.47,3.34-3.66,5.52-1.92.65.52-.51,3.47-1.05,5.24-.7,2.36-1.89,4.61-2.34,7-.39,2.14,1.24,3.12,2.93,1.75a76.09,76.09,0,0,0,7.25-7c1.57-1.65,2.75-3.69,4.44-5.2.82-.73,2.38-.63,3.61-.91l.33,1c-1.24,1.37-2.57,2.68-3.69,4.14a14,14,0,0,0-2.42,4.07c-.36,1.15.08,2.55.16,3.83,1.26-.38,2.92-.39,3.71-1.22,3.21-3.4,6.15-7,9.2-10.61a9.36,9.36,0,0,1,2-2.2,3.1,3.1,0,0,1,2.62-.35,2.67,2.67,0,0,1,.53,2.49c-1.1,2.89-2.45,5.67-3.69,8.51-.42,1-.77,1.94-1.16,2.91l.71.59,8-7,.56.58a38.72,38.72,0,0,1-4.64,4.68A36,36,0,0,0,371.37,154a21.7,21.7,0,0,1-4.53,6.25,11.07,11.07,0,0,1-5.08,2.84,4.84,4.84,0,0,1-3.86-1.46,3.58,3.58,0,0,1,0-3.49c2.76-3.22,5.39-6.91,8.91-9,5.73-3.45,8.18-8.73,10.46-14.38a1.72,1.72,0,0,0-.25-1.63c-.78,1-1.51,2-2.35,2.89a47.18,47.18,0,0,1-4.61,4.66c-3.72,3-6.36,2.52-9.18-1.64a36.48,36.48,0,0,1-5.71,3.53c-1.28.53-3.42.63-4.35-.11s-1.4-2.89-1.12-4.22c.58-2.74,1.79-5.35,3-8.7-6.89,3-8.48,10.94-14.47,13.85l-.91-.66c1-2.94,1.93-5.88,3.12-9.51l-3.87,2.34,4.73-7.55c2.32-3.68,4.53-7.44,7-11a39,39,0,0,1,5.36-6.37,7.65,7.65,0,0,1,4.29-1.78c3.19-.34,4.82,2,3.25,4.74a29.82,29.82,0,0,1-5.13,6.51c-2.85,2.77-6,5.29-9.09,7.77a10.61,10.61,0,0,0-3.86,7C343.43,135.18,343.76,135.47,344.1,135.75Zm26.16,13.66-1.07-.91c-3.09,3.12-6.29,6.16-9.19,9.45-.61.7-.15,2.35-.19,3.56,1.17-.21,2.67,0,3.46-.7C366.86,157.8,368.71,153.67,370.26,149.41Zm-22.85-24.57c5.88-2.28,12.9-11.14,11.64-14.79C353.07,113.49,350,119,347.41,124.84Z"/><path d="M128.26,134.51c-2,3.73-4.57,7-8.65,8.48-3.11,1.14-5.51-.85-4.94-4.12a35.59,35.59,0,0,1,1.89-5.64c.36-1,.77-2,1.49-3.85-7,3-8.62,10.69-14.38,13.68l-1-.61,2.69-9.21-2.87,2-.33-.27c1.43-2.36,2.85-4.73,4.3-7.07,1.87-3,3.67-6.08,5.7-9,1.93-2.76,4.08-5.37,6.21-8a3.4,3.4,0,0,1,1.95-1.31c1.87-.17,4.25-.73,5.56.15,2,1.32,1.06,3.89-.31,5.31-4.07,4.2-8.29,8.27-12.71,12.1-2.53,2.19-4.34,4.53-4.25,8.31.78-.74,1.53-1.5,2.33-2.22,2.36-2.12,4.64-4.35,7.16-6.26.75-.57,2.19-.21,3.31-.27a11.85,11.85,0,0,1-.27,3.29c-1,2.79-2.39,5.45-3.34,8.25-.28.84.39,2,.63,3,1-.24,2.24-.19,3-.77C123.81,138.61,126,136.52,128.26,134.51ZM113,125.16c4.94-4,10.13-7.75,12.35-14.64C120.55,111.24,113.54,119.7,113,125.16Z"/><path d="M144.28,126.42c-4.38-.18-5.77-5.69-3.74-8.57,3-4.27,7.39-6.29,12.18-7.55a34.18,34.18,0,0,1,17.76,0,14.86,14.86,0,0,1,6.65,4.13c2.33,2.51,1.72,6.18-.85,8.93-4.58,4.9-10.76,6.15-17,7.22-.89.15-1.79.15-2.69.24-4.86.52-8.47,5-8.16,10.52l3.15-1.76c-.49.93-.65,1.75-1.13,2.06-1.33.85-2.79,1.48-4.2,2.2-.11-1.43-.7-3.06-.23-4.26,1.47-3.72,3.36-7.28,5.05-10.92,1.13-2.42,1.93-5,3.34-7.28a24.12,24.12,0,0,1,5.12-6,3,3,0,0,1,4.71,1c-5.42,3-8.18,7.91-11.32,13.65,2.29-.26,3.82-.32,5.32-.62,5.91-1.16,11.66-2.73,16.22-7,3.84-3.62,3.06-8.31-2-9.6a35.68,35.68,0,0,0-26.65,3.23,7.22,7.22,0,0,0-1,.7C140.63,120.06,140.41,122.57,144.28,126.42Z"/><path d="M82.2,120.5c-.92.91-1.81,1.85-2.79,2.69-.07.06-.79-.63-1.2-1L81,119.31Z"/><path d="M190.47,28.29c-3.34-3.74-6-6.94-8.93-9.89-1.56-1.57-1.5-2.62-.56-4.61,1.91-4,5-4.91,9-4.64,3.38.23,6.78,0,10.17.1,2.28,0,6.78,4.55,6.64,6.76a4.5,4.5,0,0,1-1.36,2.2c-2.85,3.16-5.75,6.27-9.19,10,11.51,2.06,19.21,8,23.22,18.29a25.7,25.7,0,0,1,.44,17.86C215.36,78,204.21,85.12,189.6,83.86c-11.42-1-22.26-11.54-23.92-23.43a27.51,27.51,0,0,1,5.42-21.12C175.77,33.11,182.12,29.72,190.47,28.29Zm2.21,51.18c12.86.53,23.34-9.41,24-22.73.61-12.57-9.76-23.55-22.76-24.12-12.43-.54-23.47,9.89-23.94,22.61C169.48,68.47,179.28,78.92,192.68,79.47Zm.19-54.08.95,0c.86-2.07,1.81-4.11,2.51-6.23a2,2,0,0,0-1-1.65,9.73,9.73,0,0,0-3.84,0,2.11,2.11,0,0,0-1.05,1.83C191.1,21.43,192,23.39,192.87,25.39Zm1.36-14c-1.19,0-1.7-.16-2,0-.87.61-1.65,1.34-2.46,2a10.76,10.76,0,0,0,2.51,1.31,7.33,7.33,0,0,0,3,0c.65-.13,1.76-.8,1.71-1a3.53,3.53,0,0,0-1.22-2.08A2.52,2.52,0,0,0,194.23,11.41Zm-6,10.89.65-.57c-.78-1.71-.56-4.3-4.28-3.42Zm14.19-7.19.92-1.6-3.26-1.9c-.18.58-.67,1.52-.48,1.68A19.68,19.68,0,0,0,202.39,15.11Zm-18.65-1.67.84,1.54a20.18,20.18,0,0,0,2.78-1.62c.15-.12-.38-1.1-.6-1.69Zm18.69,4.63c-3.11-.47-4.13.76-4,4.46Z"/><path d="M160.42,36.32c0,8.52.8,8.06-8.11,8-7.76-.09-8.13,1.68-8.11-8.06,0-8.34,0-8.25,8.51-8.16C161.86,28.15,160.25,28.63,160.42,36.32Zm-4.68-.19c.45-2.77-.8-3.69-3.5-3.71s-3.65,1.08-3.68,3.71,1,3.64,3.7,3.62S156.24,38.9,155.74,36.13Z"/><path d="M193,74.69a18.61,18.61,0,0,1,.76-37.21c10,.18,18.43,9,18.06,18.87C211.44,67.05,203.29,75,193,74.69Zm14.31-18.43A14,14,0,0,0,193.18,42a14.38,14.38,0,0,0-14,14.23,14.17,14.17,0,0,0,14.47,14A13.87,13.87,0,0,0,207.32,56.26Z"/></g></g></svg>